name rise31.4854peak64.571fall78.6902.mot
datacolumns 19
datarows 20
range 0.91666500000000 0.94832800000000
endheader
time	ground_force1_vx	ground_force1_vy	ground_force1_vz	ground_force1_px	ground_force1_py	ground_force1_pz	ground_force2_vx	ground_force2_vy	ground_force2_vz	ground_force2_px	ground_force2_py	ground_force2_pz	ground_torque1_x	ground_torque1_y	ground_torque1_z	ground_torque2_x	ground_torque2_y	ground_torque2_z	
0.91666500000000	-47.57640200000000	779.87869400000000	48.76435800000000	0.09210000000000	0.00000000000000	0.10961900000000	-13.76684300000000	79.15163099999999	13.51002000000000	0.36601300000000	0.00000000000000	-0.07003700000000	0.00000000000000	19.44441900000000	0.00000000000000	0.00000000000000	8.19459300000000	0.00000000000000	
0.91833400000000	-47.62680300000000	776.95091600000001	48.41488000000000	0.09169700000000	0.00000000000000	0.10953300000000	-13.16338200000000	82.06644000000000	13.54844400000000	0.36727600000000	0.00000000000000	-0.07036700000000	0.00000000000000	19.31786400000000	0.00000000000000	0.00000000000000	8.35203200000000	0.00000000000000	
0.91999900000000	-47.69396300000000	773.97096799999997	48.05364700000000	0.09129900000000	0.00000000000000	0.10944300000000	-12.50929600000000	85.00558500000000	13.55310400000000	0.36846700000000	0.00000000000000	-0.07069700000000	0.00000000000000	19.19445700000000	0.00000000000000	0.00000000000000	8.49209000000000	0.00000000000000	
0.92167900000000	-47.77894500000000	770.94021799999996	47.68107400000000	0.09090300000000	0.00000000000000	0.10935000000000	-11.82186000000000	88.01275699999999	13.53360200000000	0.36958100000000	0.00000000000000	-0.07102900000000	0.00000000000000	19.07442800000000	0.00000000000000	0.00000000000000	8.61910200000000	0.00000000000000	
0.92333100000000	-47.88276600000000	767.85988199999997	47.29757800000000	0.09051000000000	0.00000000000000	0.10925500000000	-11.11409300000000	91.12207500000000	13.49714700000000	0.37061700000000	0.00000000000000	-0.07136100000000	0.00000000000000	18.95799300000000	0.00000000000000	0.00000000000000	8.73630800000000	0.00000000000000	
0.92499500000000	-48.00638800000000	764.73101399999996	46.90357300000000	0.09011700000000	0.00000000000000	0.10915700000000	-10.39476000000000	94.35761800000000	13.44848000000000	0.37157300000000	0.00000000000000	-0.07169500000000	0.00000000000000	18.84535200000000	0.00000000000000	0.00000000000000	8.84579400000000	0.00000000000000	
0.92666800000000	-48.15071500000000	761.55449499999997	46.49947000000000	0.08972400000000	0.00000000000000	0.10905600000000	-9.66867000000000	97.73375600000000	13.39000200000000	0.37244700000000	0.00000000000000	-0.07203200000000	0.00000000000000	18.73669100000000	0.00000000000000	0.00000000000000	8.94852100000000	0.00000000000000	
0.92833400000000	-48.31658500000000	758.33103100000005	46.08567700000000	0.08933000000000	0.00000000000000	0.10895300000000	-8.93721300000000	101.25611700000000	13.32204200000000	0.37324000000000	0.00000000000000	-0.07237000000000	0.00000000000000	18.63218000000000	0.00000000000000	0.00000000000000	9.04444400000000	0.00000000000000	
0.92999500000000	-48.50476800000000	755.06114100000002	45.66259100000000	0.08893400000000	0.00000000000000	0.10884700000000	-8.19903700000000	104.92300000000000	13.24323900000000	0.37395000000000	0.00000000000000	-0.07271000000000	0.00000000000000	18.53196800000000	0.00000000000000	0.00000000000000	9.13268300000000	0.00000000000000	
0.93166100000000	-48.71595300000000	751.74515199999996	45.23060000000000	0.08853400000000	0.00000000000000	0.10873800000000	-7.45079600000000	108.72703400000000	13.15096400000000	0.37457900000000	0.00000000000000	-0.07305300000000	0.00000000000000	18.43619200000000	0.00000000000000	0.00000000000000	9.21172700000000	0.00000000000000	
0.93333500000000	-48.95075000000000	748.38319600000000	44.79008000000000	0.08813000000000	0.00000000000000	0.10862800000000	-6.68790100000000	112.65693200000000	13.04176900000000	0.37512600000000	0.00000000000000	-0.07339700000000	0.00000000000000	18.34496500000000	0.00000000000000	0.00000000000000	9.27965100000000	0.00000000000000	
0.93500200000000	-49.20967900000000	744.97520499999996	44.34139600000000	0.08772000000000	0.00000000000000	0.10851500000000	-5.90521400000000	116.69917800000000	12.91180100000000	0.37559200000000	0.00000000000000	-0.07374400000000	0.00000000000000	18.25838500000000	0.00000000000000	0.00000000000000	9.33432800000000	0.00000000000000	
0.93666200000000	-49.49317000000000	741.52090499999997	43.88489300000000	0.08730300000000	0.00000000000000	0.10840000000000	-5.09764500000000	120.83953900000000	12.75718000000000	0.37597800000000	0.00000000000000	-0.07409200000000	0.00000000000000	18.17652800000000	0.00000000000000	0.00000000000000	9.37361800000000	0.00000000000000	
0.93833400000000	-49.80155200000000	738.01981799999999	43.42090200000000	0.08687900000000	0.00000000000000	0.10828300000000	-4.26062800000000	125.06432900000000	12.57430000000000	0.37628700000000	0.00000000000000	-0.07444100000000	0.00000000000000	18.09944900000000	0.00000000000000	0.00000000000000	9.39552200000000	0.00000000000000	
0.93999400000000	-50.13505200000000	734.47126200000002	42.94973700000000	0.08644600000000	0.00000000000000	0.10816400000000	-3.39046600000000	129.36136999999999	12.36006200000000	0.37652000000000	0.00000000000000	-0.07479100000000	0.00000000000000	18.02718400000000	0.00000000000000	0.00000000000000	9.39830900000000	0.00000000000000	
0.94167300000000	-50.49379300000000	730.87434399999995	42.47169000000000	0.08600400000000	0.00000000000000	0.10804300000000	-2.48454400000000	133.72064599999999	12.11202100000000	0.37668000000000	0.00000000000000	-0.07514200000000	0.00000000000000	17.95974600000000	0.00000000000000	0.00000000000000	9.38059300000000	0.00000000000000	
0.94332800000000	-50.87778300000000	727.22797100000003	41.98703300000000	0.08555100000000	0.00000000000000	0.10792000000000	-1.54140900000000	138.13465700000000	11.82846300000000	0.37676800000000	0.00000000000000	-0.07549300000000	0.00000000000000	17.89712900000000	0.00000000000000	0.00000000000000	9.34137800000000	0.00000000000000	
0.94500200000000	-51.28691900000000	723.53084300000000	41.49602000000000	0.08508800000000	0.00000000000000	0.10779600000000	-0.56076200000000	142.59851499999999	11.50842100000000	0.37678800000000	0.00000000000000	-0.07584400000000	0.00000000000000	17.83930100000000	0.00000000000000	0.00000000000000	9.28006900000000	0.00000000000000	
0.94666400000000	-51.72097800000000	719.78146400000003	40.99888100000000	0.08461200000000	0.00000000000000	0.10767000000000	0.45665000000000	147.10980799999999	11.15163000000000	0.37674100000000	0.00000000000000	-0.07619500000000	0.00000000000000	17.78621100000000	0.00000000000000	0.00000000000000	9.19645400000000	0.00000000000000	
0.94832800000000	-52.17961600000000	715.97814200000005	40.49582500000000	0.08412500000000	0.00000000000000	0.10754300000000	1.50918700000000	151.66831199999999	10.75844800000000	0.37663300000000	0.00000000000000	-0.07654400000000	0.00000000000000	17.73778300000000	0.00000000000000	0.00000000000000	9.09066500000000	0.00000000000000	
